<?xml version="1.0" encoding="UTF-8"?>
<!DOCTYPE svg PUBLIC "-//W3C//DTD SVG 1.1//EN" "http://www.w3.org/Graphics/SVG/1.1/DTD/svg11.dtd">
<svg xmlns="http://www.w3.org/2000/svg" version="1.1" width="78px" height="65px" style="shape-rendering:geometricPrecision; text-rendering:geometricPrecision; image-rendering:optimizeQuality; fill-rule:evenodd; clip-rule:evenodd" xmlns:xlink="http://www.w3.org/1999/xlink">
<g><path style="opacity:1" fill="#030200" d="M -0.5,-0.5 C 25.5,-0.5 51.5,-0.5 77.5,-0.5C 77.5,21.1667 77.5,42.8333 77.5,64.5C 51.5,64.5 25.5,64.5 -0.5,64.5C -0.5,42.8333 -0.5,21.1667 -0.5,-0.5 Z"/></g>
<g><path style="opacity:1" fill="#cf9a32" d="M 10.5,27.5 C 15.4395,27.9579 18.1062,30.6245 18.5,35.5C 18.0643,38.1786 17.5643,40.8453 17,43.5C 12.2483,47.8115 9.41496,46.6449 8.5,40C 9.95812,35.9598 10.6248,31.7932 10.5,27.5 Z"/></g>
<g><path style="opacity:1" fill="#c99630" d="M 50.5,3.5 C 52.5273,3.33788 54.5273,3.50454 56.5,4C 57.8602,5.93764 57.5268,7.60431 55.5,9C 53.7795,9.73926 52.1128,10.5726 50.5,11.5C 51.482,13.8343 51.6487,16.1676 51,18.5C 55.849,15.2772 59.349,16.4439 61.5,22C 59.4923,24.0206 57.8256,26.3539 56.5,29C 61.5251,28.0832 66.5251,28.4165 71.5,30C 72.8333,31.6667 72.8333,33.3333 71.5,35C 57.1989,33.9122 43.6989,36.7455 31,43.5C 29.2894,43.5607 27.956,42.8941 27,41.5C 26.6667,45.1667 26.3333,48.8333 26,52.5C 25.0508,55.1997 23.2175,56.033 20.5,55C 18.9546,53.1781 18.288,51.0114 18.5,48.5C 19.2643,38.6742 19.9309,28.8408 20.5,19C 20.6909,15.3017 20.0242,11.8017 18.5,8.5C 22.1429,7.55109 25.3096,8.55109 28,11.5C 27.5538,14.4383 27.0538,17.4383 26.5,20.5C 29.5184,20.3354 32.5184,20.502 35.5,21C 36.0712,22.2051 36.7379,23.3717 37.5,24.5C 38.1667,24.1667 38.8333,23.8333 39.5,23.5C 41.1314,20.3308 42.4648,16.9975 43.5,13.5C 40.1273,12.9577 37.7939,11.1244 36.5,8C 36.8333,7.5 37.1667,7 37.5,6.5C 38.5,7.16667 39.5,7.83333 40.5,8.5C 44.1734,7.33003 47.5068,5.66337 50.5,3.5 Z"/></g>
<g><path style="opacity:1" fill="#070401" d="M 26.5,25.5 C 30.553,26.0127 34.553,26.846 38.5,28C 37.0871,30.3871 36.4204,32.7204 36.5,35C 33.3821,36.7275 30.0487,37.5608 26.5,37.5C 26.5,33.5 26.5,29.5 26.5,25.5 Z"/></g>
<g><path style="opacity:1" fill="#151005" d="M 49.5,22.5 C 50.2389,22.369 50.9056,22.5357 51.5,23C 50.2904,26.1628 48.6237,28.9961 46.5,31.5C 46.1667,31.1667 45.8333,30.8333 45.5,30.5C 46.8466,27.8068 48.1799,25.1401 49.5,22.5 Z"/></g>
<g><path style="opacity:1" fill="#c6922f" d="M 50.5,40.5 C 55.1209,39.9927 59.4542,40.826 63.5,43C 64.5742,43.7387 65.2409,44.7387 65.5,46C 62.7591,50.5479 60.5925,55.3812 59,60.5C 58.044,61.8941 56.7106,62.5607 55,62.5C 53.0062,61.2138 51.0062,59.8805 49,58.5C 45.8144,59.3928 42.6477,59.8928 39.5,60C 37.9512,58.786 36.7845,57.286 36,55.5C 35.4987,51.4899 34.9987,47.4899 34.5,43.5C 36.1439,43.2865 37.6439,43.6198 39,44.5C 42.8289,42.8362 46.6623,41.5028 50.5,40.5 Z"/></g>
<g><path style="opacity:1" fill="#110c03" d="M 47.5,45.5 C 50.1873,45.3359 52.854,45.5026 55.5,46C 54.1108,52.4746 50.1108,55.1412 43.5,54C 42.6669,51.9189 42.6669,49.7522 43.5,47.5C 45.3797,47.7709 46.713,47.1042 47.5,45.5 Z"/></g>
</svg>
